<svg xmlns="http://www.w3.org/2000/svg" viewBox="49 73 719 269" role="img" aria-label="Happly"><g fill="#D6026F"><path d="M122.46,238.84c0-23.1,22.2-48.6,22.2-62.7,0-4.8-1.8-8.1-7.2-8.1-24.3,0-47.7,61.2-56.7,94.2h-31.2c17.7-51.9,43.2-126.9,64.5-188.4h30.6c-11.4,31.5-22.2,62.7-32.7,94.2,10.8-18.3,27-27.6,41.7-27.6s24,9.9,24.3,24.6c.6,22.2-23.7,52.2-23.7,65.1,0,3.9,2.4,6.3,6,6.3,12,0,30.3-23.7,45.6-54.3l13.2,14.4c-11.4,25.5-39.6,68.7-69.3,68.7-18,0-27.3-11.1-27.3-26.4Z"/><path d="M351.06,196.54c-11.4,25.5-39.6,68.7-68.4,68.7-14.4,0-22.5-9.9-24.3-20.1-6.6,10.5-17.4,20.1-34.2,20.1-20.7,0-33.9-17.1-33.9-43.5,0-40.2,27.9-81.3,61.8-81.3,12,0,23.7,7.5,28.2,15.6l4.2-12.6h30.6c-26.4,72-34.2,93-22.8,93s30.3-22.8,45.6-54.3l13.2,14.4ZM273.06,177.64c-3.9-5.7-10.5-9.9-18-9.9-19.8,0-33,27.9-33,51,0,9.6,4.2,17.7,13.8,17.7,13.2,0,25.2-19.2,37.2-58.8Z"/><path d="M282.66,338.74c22.5-64.8,44.7-130.8,66.9-195.3h30.6l-10.2,25.5c9.6-16.2,24.9-28.2,41.4-28.2s27,13.2,27,36.6c0,20.7-13.5,51.6-30.9,63.3,20.1-2.1,41.7-22.2,57-58.8l13.2,16.5c-26.4,60.6-59.7,67.2-94.8,67.2-15.3,0-30.3-3-41.4-10.8-7.8,22.2-16.5,51.3-26.4,84h-32.4ZM406.26,183.04c0-9.9-3.6-16.2-11.1-16.2-12-.3-29.4,18-47.1,66.3,4.2,4.5,11.4,7.5,19.8,7.5,19.8,0,38.4-34.2,38.4-57.6Z"/><path d="M410.15,338.74c22.5-64.8,44.7-130.8,66.9-195.3h30.6l-10.2,25.5c9.6-16.2,24.9-28.2,41.4-28.2s27,13.2,27,36.6c0,20.7-13.5,51.6-30.9,63.3,20.1-2.1,41.7-22.2,57-58.8l13.2,16.5c-26.4,60.6-59.7,67.2-94.8,67.2-15.3,0-30.3-3-41.4-10.8-7.8,22.2-16.5,51.3-26.4,84h-32.4ZM533.75,183.04c0-9.9-3.6-16.2-11.1-16.2-12-.3-29.4,18-47.1,66.3,4.2,4.5,11.4,7.5,19.8,7.5,19.8,0,38.4-34.2,38.4-57.6Z"/><path d="M672.05,196.54c-11.1,25.5-39.3,68.7-68.4,68.7s-33.3-23.4-16.8-75.6c9.6-29.4,26.4-74.4,41.4-115.8h31.8c-19.2,49.8-35.1,95.1-43.5,120.6-11.1,32.7-12.3,42-3.3,42,11.7,0,30.6-22.8,45.9-54.3l12.9,14.4Z"/><path d="M612.65,312.64c0-35.7,49.2-48.9,87.3-54l9-25.8c-6,8.7-17.7,15.3-29.4,15.3-42,0-32.4-48.3-9.3-104.7h31.5c-14.7,36-30.9,78.9-10.8,78.9,22.5,0,34.5-45.6,45.3-78.9h31.2c-15.9,45.9-28.8,85.2-44.7,131.4-14.7,42.6-40.5,66.9-72.6,66.9-24.9,0-37.5-13.5-37.5-29.1ZM692.75,281.14c-22.2,2.1-50.7,13.2-50.7,27.3,0,5.1,3.3,9,10.8,9,13.8,0,28.5-10.5,39.9-36.3Z"/></g></svg>
